<svg xmlns="http://www.w3.org/2000/svg" width="168.96" height="234.5" viewBox="0 0 168.96 234.5">
  <path id="Icon_awesome-euro-sign" data-name="Icon awesome-euro-sign" d="M164.179,202.081a6.335,6.335,0,0,0-7.622-4.9,112.012,112.012,0,0,1-24,2.833c-29.994,0-53.86-18.21-64.181-44.727h60.074a6.328,6.328,0,0,0,6.187-4.9L138,135.534a6.3,6.3,0,0,0-6.187-7.658H60.883a111.942,111.942,0,0,1,.072-22.113h77.461a6.328,6.328,0,0,0,6.195-4.938l3.441-15.575a6.3,6.3,0,0,0-6.194-7.624H68.79c10.9-23.55,33.126-39.274,62.151-39.274a104.44,104.44,0,0,1,20,2.17,6.347,6.347,0,0,0,7.4-4.514l6.336-23.224a6.275,6.275,0,0,0-4.928-7.808,155.291,155.291,0,0,0-27.84-2.726c-51.353,0-92.791,31.538-108.091,75.375H6.341A6.312,6.312,0,0,0,0,83.906V99.481a6.312,6.312,0,0,0,6.341,6.281h11.4a153.932,153.932,0,0,0-.1,22.113H6.341A6.312,6.312,0,0,0,0,134.157V149a6.312,6.312,0,0,0,6.341,6.281H22.253c13.223,47.283,54.505,81.468,109.655,81.468a132.973,132.973,0,0,0,32.286-4.077,6.283,6.283,0,0,0,4.644-7.306l-4.659-23.288Z" transform="translate(0 -2.25)" fill="#2ec1ac"/>
</svg>
