<svg xmlns="http://www.w3.org/2000/svg" width="252.557" height="256.566" viewBox="0 0 252.557 256.566">
  <path id="Icon_awesome-flag" data-name="Icon awesome-flag" d="M171.722,49.5c-26.853,0-49.03-17.43-82.791-17.43a97.4,97.4,0,0,0-34.1,6.02A28.063,28.063,0,1,0,12.589,51.085V244.539a12.026,12.026,0,0,0,12.027,12.027h8.018A12.026,12.026,0,0,0,44.66,244.539v-47.3c14.187-6.045,31.861-11.085,57.344-11.085,26.853,0,49.03,17.43,82.791,17.43,24.138,0,43.429-8.165,61.388-20.474A16.007,16.007,0,0,0,253.12,169.9V48.078a16.034,16.034,0,0,0-22.793-14.54C213.12,41.53,192.015,49.5,171.722,49.5Z" transform="translate(-0.563 0)" fill="#2ec1ac"/>
</svg>
