<svg xmlns="http://www.w3.org/2000/svg" width="330.895" height="294.129" viewBox="0 0 330.895 294.129">
  <path id="Icon_awesome-hotel" data-name="Icon awesome-hotel" d="M321.7,36.766a9.189,9.189,0,0,0,9.192-9.192V9.192A9.189,9.189,0,0,0,321.7,0H9.192A9.189,9.189,0,0,0,0,9.192V27.575a9.189,9.189,0,0,0,9.192,9.192h9.18v220.6H9.192A9.189,9.189,0,0,0,0,266.554v18.383a9.189,9.189,0,0,0,9.192,9.192H147.064V248.171a9.219,9.219,0,0,1,9.192-9.192h18.383a9.219,9.219,0,0,1,9.192,9.192v45.958H321.7a9.189,9.189,0,0,0,9.192-9.192V266.554a9.189,9.189,0,0,0-9.192-9.192h-9.192V36.766ZM147.064,62.5a7.908,7.908,0,0,1,7.353-7.353h22.06A7.908,7.908,0,0,1,183.83,62.5v22.06a7.908,7.908,0,0,1-7.353,7.353h-22.06a7.908,7.908,0,0,1-7.353-7.353V62.5Zm0,55.149a7.908,7.908,0,0,1,7.353-7.353h22.06a7.908,7.908,0,0,1,7.353,7.353v22.06a7.908,7.908,0,0,1-7.353,7.353h-22.06a7.908,7.908,0,0,1-7.353-7.353v-22.06ZM73.532,62.5a7.908,7.908,0,0,1,7.353-7.353h22.06A7.908,7.908,0,0,1,110.3,62.5v22.06a7.908,7.908,0,0,1-7.353,7.353H80.885a7.908,7.908,0,0,1-7.353-7.353Zm29.413,84.562H80.885a7.908,7.908,0,0,1-7.353-7.353v-22.06a7.908,7.908,0,0,1,7.353-7.353h22.06a7.908,7.908,0,0,1,7.353,7.353v22.06A7.908,7.908,0,0,1,102.945,147.064ZM110.3,220.6a55.149,55.149,0,0,1,110.3,0Zm147.064-80.885a7.908,7.908,0,0,1-7.353,7.353H227.95a7.908,7.908,0,0,1-7.353-7.353v-22.06a7.908,7.908,0,0,1,7.353-7.353h22.06a7.908,7.908,0,0,1,7.353,7.353Zm0-55.149a7.908,7.908,0,0,1-7.353,7.353H227.95a7.908,7.908,0,0,1-7.353-7.353V62.5a7.908,7.908,0,0,1,7.353-7.353h22.06a7.908,7.908,0,0,1,7.353,7.353Z" fill="#2ec1ac"/>
</svg>
