<svg xmlns="http://www.w3.org/2000/svg" width="435.956" height="283.323" viewBox="0 0 435.956 283.323">
  <g id="Icon_ionic-ios-people" data-name="Icon ionic-ios-people" transform="translate(-2.215 -7.748)">
    <path id="Tracé_1" data-name="Tracé 1" d="M234.034,225.727c-10.875-3.884-28.643-4.078-36.508-7.088-5.437-2.136-14.079-4.466-16.895-7.865s-2.816-27.672-2.816-27.672,6.8-6.408,9.612-13.593c2.816-7.088,4.661-26.7,4.661-26.7s6.408,2.719,8.933-10.1c2.136-11.069,6.214-16.895,5.146-25.05-1.165-8.156-5.632-6.214-5.632-6.214s5.632-8.253,5.632-36.313c0-28.934-21.846-57.383-62.723-57.383-40.78,0-62.82,28.546-62.82,57.383,0,28.06,5.534,36.313,5.534,36.313S81.6,99.5,80.527,107.659c-1.165,8.156,2.913,13.982,5.146,25.05,2.524,12.914,8.933,10.1,8.933,10.1s1.845,19.516,4.661,26.7,9.612,13.593,9.612,13.593,0,24.274-2.816,27.672-11.457,5.729-16.895,7.768c-7.768,3.01-25.536,3.4-36.508,7.282-10.875,3.884-44.469,21.555-44.469,65.248H278.407C278.5,247.282,244.909,229.61,234.034,225.727Z" transform="translate(76.554 0)" fill="#2ec1ac"/>
    <path id="Tracé_2" data-name="Tracé 2" d="M107.563,134.13s23.206-.777,32.43-9.03c-15.05-22.817-6.894-49.421-10-74.278-3.107-24.759-17.186-39.615-45.343-39.615H84.26c-27.187,0-41.848,14.758-44.955,39.615C36.2,75.582,44.84,105.2,29.4,125.1c9.224,8.35,32.527,8.059,32.527,8.059h0s.971,13.982-.971,16.312-7.671,4.563-11.651,5.34A225.284,225.284,0,0,0,24.158,161.8c-7.573,2.622-21.943,16.7-21.943,36.119H80.182c2.136-7.768,16.8-21.652,31.07-28.934,8.739-4.466,17.38-4.175,23.982-5.049,0,0,3.69-5.826-8.447-8.059,0,0-16.7-4.175-18.642-6.505C106.3,147.238,107.563,134.13,107.563,134.13Z" transform="translate(0 44.311)" fill="#2ec1ac"/>
    <path id="Tracé_3" data-name="Tracé 3" d="M56.238,134.13s-23.206-.777-32.43-9.03c15.05-22.817,6.894-49.421,10-74.278,3.107-24.759,17.186-39.615,45.343-39.615h.388c27.187,0,41.848,14.758,44.955,39.615,3.107,24.759-5.534,54.373,9.9,74.278-9.224,8.35-32.527,8.059-32.527,8.059h0s-.971,13.982.971,16.312,7.671,4.563,11.651,5.34a225.286,225.286,0,0,1,25.148,6.991c7.573,2.622,21.943,16.7,21.943,36.119H83.618c-2.136-7.768-16.8-21.652-31.07-28.934-8.739-4.466-17.38-4.175-23.982-5.049,0,0-3.69-5.826,8.447-8.059,0,0,16.7-4.175,18.642-6.505C57.5,147.238,56.238,134.13,56.238,134.13Z" transform="translate(276.586 44.311)" fill="#2ec1ac"/>
  </g>
</svg>
