<svg xmlns="http://www.w3.org/2000/svg" width="45" height="22.5" viewBox="0 0 45 22.5">
  <path id="Icon_awesome-swimmer" data-name="Icon awesome-swimmer" d="M13.332,21.838a3.854,3.854,0,0,0,2.418.662,3.852,3.852,0,0,0,2.418-.662,5.538,5.538,0,0,1,3.759-1.588h1.146a5.537,5.537,0,0,1,3.759,1.588,3.854,3.854,0,0,0,2.418.662,3.852,3.852,0,0,0,2.418-.662,5.591,5.591,0,0,1,3.473-1.558l-7.934-5.667,1.266-.9a1.14,1.14,0,0,1,.887-.184l7.056,1.514a3.375,3.375,0,0,0,1.415-6.6L30.774,6.924a7.89,7.89,0,0,0-6.227,1.292l-5.626,4.02a7.842,7.842,0,0,0-1.879,1.894l-4.826,6.893A6.47,6.47,0,0,1,13.332,21.838ZM43.875,24.75H42.75a5.93,5.93,0,0,1-3.944-1.259,3.331,3.331,0,0,0-2.234-.991H35.426a3.331,3.331,0,0,0-2.234.991A5.923,5.923,0,0,1,29.25,24.75a5.93,5.93,0,0,1-3.944-1.259,3.331,3.331,0,0,0-2.234-.991H21.926a3.331,3.331,0,0,0-2.234.991A5.923,5.923,0,0,1,15.75,24.75a5.93,5.93,0,0,1-3.944-1.259A3.331,3.331,0,0,0,9.572,22.5H8.426a3.331,3.331,0,0,0-2.234.991A5.923,5.923,0,0,1,2.25,24.75H1.125A1.125,1.125,0,0,0,0,25.875v2.25A1.125,1.125,0,0,0,1.125,29.25H2.25A10.484,10.484,0,0,0,9,27.011a10.48,10.48,0,0,0,6.75,2.239,10.484,10.484,0,0,0,6.75-2.239,10.48,10.48,0,0,0,6.75,2.239A10.484,10.484,0,0,0,36,27.011a10.48,10.48,0,0,0,6.75,2.239h1.125A1.125,1.125,0,0,0,45,28.125v-2.25A1.125,1.125,0,0,0,43.875,24.75ZM7.875,18A5.625,5.625,0,1,0,2.25,12.375,5.625,5.625,0,0,0,7.875,18Z" transform="translate(0 -6.75)"/>
</svg>
